<mxfile host="app.diagrams.net" modified="2024-07-18T16:25:59.077Z" agent="Mozilla/5.0 (Windows NT 10.0; Win64; x64) AppleWebKit/537.36 (KHTML, like Gecko) Chrome/126.0.0.0 Safari/537.36" etag="IEbglOHNKzJam7bNAqLw" version="24.7.1" type="device">
  <diagram id="prtHgNgQTEPvFCAcTncT" name="Page-1">
    <mxGraphModel dx="1707" dy="434" grid="1" gridSize="10" guides="1" tooltips="1" connect="1" arrows="1" fold="1" page="1" pageScale="1" pageWidth="827" pageHeight="1169" background="none" math="0" shadow="0">
      <root>
        <mxCell id="0" />
        <mxCell id="1" parent="0" />
        <mxCell id="irmIf72TgN6WrX_W3rFv-1" value="" style="rounded=1;whiteSpace=wrap;html=1;strokeWidth=0;strokeColor=none;shadow=0;" parent="1" vertex="1">
          <mxGeometry x="205" y="135" width="60" height="20" as="geometry" />
        </mxCell>
        <mxCell id="irmIf72TgN6WrX_W3rFv-3" value="" style="rounded=1;whiteSpace=wrap;html=1;strokeWidth=0;strokeColor=none;shadow=0;" parent="1" vertex="1">
          <mxGeometry x="245" y="165" width="60" height="20" as="geometry" />
        </mxCell>
        <mxCell id="irmIf72TgN6WrX_W3rFv-4" value="" style="rounded=1;whiteSpace=wrap;html=1;strokeWidth=0;strokeColor=none;shadow=0;" parent="1" vertex="1">
          <mxGeometry x="395" y="230" width="120" height="20" as="geometry" />
        </mxCell>
        <mxCell id="irmIf72TgN6WrX_W3rFv-5" value="" style="rounded=1;whiteSpace=wrap;html=1;strokeWidth=0;strokeColor=none;shadow=0;" parent="1" vertex="1">
          <mxGeometry x="475" y="260" width="90" height="20" as="geometry" />
        </mxCell>
        <mxCell id="irmIf72TgN6WrX_W3rFv-10" value="" style="rounded=1;whiteSpace=wrap;html=1;strokeWidth=0;strokeColor=none;shadow=0;" parent="1" vertex="1">
          <mxGeometry x="565" y="290" width="70" height="20" as="geometry" />
        </mxCell>
        <mxCell id="irmIf72TgN6WrX_W3rFv-11" value="Requirements" style="text;html=1;strokeColor=none;fillColor=none;align=center;verticalAlign=middle;whiteSpace=wrap;rounded=0;" parent="1" vertex="1">
          <mxGeometry x="45" y="135" width="60" height="30" as="geometry" />
        </mxCell>
        <mxCell id="irmIf72TgN6WrX_W3rFv-12" value="Design" style="text;html=1;strokeColor=none;fillColor=none;align=center;verticalAlign=middle;whiteSpace=wrap;rounded=0;" parent="1" vertex="1">
          <mxGeometry x="15" y="165" width="90" height="30" as="geometry" />
        </mxCell>
        <mxCell id="irmIf72TgN6WrX_W3rFv-13" value="Implementation" style="text;html=1;strokeColor=none;fillColor=none;align=center;verticalAlign=middle;whiteSpace=wrap;rounded=0;" parent="1" vertex="1">
          <mxGeometry x="45" y="195" width="60" height="30" as="geometry" />
        </mxCell>
        <mxCell id="irmIf72TgN6WrX_W3rFv-22" style="edgeStyle=orthogonalEdgeStyle;rounded=0;orthogonalLoop=1;jettySize=auto;html=1;exitX=0.75;exitY=1;exitDx=0;exitDy=0;entryX=0.75;entryY=0;entryDx=0;entryDy=0;strokeColor=none;" parent="1" source="irmIf72TgN6WrX_W3rFv-15" target="irmIf72TgN6WrX_W3rFv-16" edge="1">
          <mxGeometry relative="1" as="geometry" />
        </mxCell>
        <mxCell id="irmIf72TgN6WrX_W3rFv-15" value="Testing" style="text;html=1;strokeColor=none;fillColor=none;align=center;verticalAlign=middle;whiteSpace=wrap;rounded=0;" parent="1" vertex="1">
          <mxGeometry x="-25" y="230" width="170" height="30" as="geometry" />
        </mxCell>
        <mxCell id="irmIf72TgN6WrX_W3rFv-16" value="Maintenance" style="text;html=1;strokeColor=none;fillColor=none;align=center;verticalAlign=middle;whiteSpace=wrap;rounded=0;" parent="1" vertex="1">
          <mxGeometry x="40" y="290" width="60" height="30" as="geometry" />
        </mxCell>
        <mxCell id="irmIf72TgN6WrX_W3rFv-24" value="22-JUN" style="text;html=1;strokeColor=none;fillColor=none;align=center;verticalAlign=middle;whiteSpace=wrap;rounded=0;" parent="1" vertex="1">
          <mxGeometry x="200" y="80" width="60" height="30" as="geometry" />
        </mxCell>
        <mxCell id="irmIf72TgN6WrX_W3rFv-25" value="24-JUL" style="text;html=1;strokeColor=none;fillColor=none;align=center;verticalAlign=middle;whiteSpace=wrap;rounded=0;" parent="1" vertex="1">
          <mxGeometry x="260" y="80" width="60" height="30" as="geometry" />
        </mxCell>
        <mxCell id="irmIf72TgN6WrX_W3rFv-26" value="02-AUG" style="text;html=1;strokeColor=none;fillColor=none;align=center;verticalAlign=middle;whiteSpace=wrap;rounded=0;" parent="1" vertex="1">
          <mxGeometry x="320" y="80" width="60" height="30" as="geometry" />
        </mxCell>
        <mxCell id="irmIf72TgN6WrX_W3rFv-27" value="20-AUG" style="text;html=1;strokeColor=none;fillColor=none;align=center;verticalAlign=middle;whiteSpace=wrap;rounded=0;" parent="1" vertex="1">
          <mxGeometry x="380" y="80" width="60" height="30" as="geometry" />
        </mxCell>
        <mxCell id="irmIf72TgN6WrX_W3rFv-28" value="28-AUG" style="text;html=1;strokeColor=none;fillColor=none;align=center;verticalAlign=middle;whiteSpace=wrap;rounded=0;" parent="1" vertex="1">
          <mxGeometry x="444" y="80" width="60" height="30" as="geometry" />
        </mxCell>
        <mxCell id="jjEdSsA0Z1TeNVVifjuW-2" value="24-SEP" style="text;html=1;strokeColor=none;fillColor=none;align=center;verticalAlign=middle;whiteSpace=wrap;rounded=0;" parent="1" vertex="1">
          <mxGeometry x="570" y="80" width="60" height="30" as="geometry" />
        </mxCell>
        <mxCell id="jjEdSsA0Z1TeNVVifjuW-6" value="" style="rounded=1;whiteSpace=wrap;html=1;strokeWidth=0;strokeColor=none;shadow=0;" parent="1" vertex="1">
          <mxGeometry x="295" y="200" width="100" height="20" as="geometry" />
        </mxCell>
        <mxCell id="jjEdSsA0Z1TeNVVifjuW-7" style="edgeStyle=orthogonalEdgeStyle;rounded=0;orthogonalLoop=1;jettySize=auto;html=1;exitX=0.5;exitY=1;exitDx=0;exitDy=0;strokeColor=none;shadow=0;" parent="1" source="irmIf72TgN6WrX_W3rFv-4" target="irmIf72TgN6WrX_W3rFv-4" edge="1">
          <mxGeometry relative="1" as="geometry" />
        </mxCell>
        <mxCell id="vqp4xuhhqZ3oTqie_-dD-5" value="08-OCT" style="text;html=1;strokeColor=none;fillColor=none;align=center;verticalAlign=middle;whiteSpace=wrap;rounded=0;" parent="1" vertex="1">
          <mxGeometry x="640" y="80" width="60" height="30" as="geometry" />
        </mxCell>
        <mxCell id="vqp4xuhhqZ3oTqie_-dD-6" value="24-OCT" style="text;html=1;strokeColor=none;fillColor=none;align=center;verticalAlign=middle;whiteSpace=wrap;rounded=0;" parent="1" vertex="1">
          <mxGeometry x="700" y="80" width="60" height="30" as="geometry" />
        </mxCell>
        <mxCell id="Sa6GU2M03IdHvF_H993k-1" value="" style="rounded=1;whiteSpace=wrap;html=1;strokeWidth=0;strokeColor=none;shadow=0;" parent="1" vertex="1">
          <mxGeometry x="205" y="135" width="60" height="20" as="geometry" />
        </mxCell>
        <mxCell id="Sa6GU2M03IdHvF_H993k-2" value="" style="rounded=1;whiteSpace=wrap;html=1;strokeWidth=0;strokeColor=none;shadow=0;" parent="1" vertex="1">
          <mxGeometry x="285" y="165" width="60" height="20" as="geometry" />
        </mxCell>
        <mxCell id="Sa6GU2M03IdHvF_H993k-3" value="" style="rounded=1;whiteSpace=wrap;html=1;strokeWidth=0;strokeColor=none;shadow=0;" parent="1" vertex="1">
          <mxGeometry x="395" y="230" width="120" height="20" as="geometry" />
        </mxCell>
        <mxCell id="Sa6GU2M03IdHvF_H993k-4" value="" style="rounded=1;whiteSpace=wrap;html=1;strokeWidth=0;strokeColor=none;shadow=0;" parent="1" vertex="1">
          <mxGeometry x="475" y="260" width="90" height="20" as="geometry" />
        </mxCell>
        <mxCell id="Sa6GU2M03IdHvF_H993k-5" value="" style="rounded=1;whiteSpace=wrap;html=1;strokeWidth=0;strokeColor=none;" parent="1" vertex="1">
          <mxGeometry x="210" y="320" width="540" height="20" as="geometry" />
        </mxCell>
        <mxCell id="Sa6GU2M03IdHvF_H993k-6" value="" style="rounded=1;whiteSpace=wrap;html=1;strokeWidth=0;strokeColor=none;shadow=0;" parent="1" vertex="1">
          <mxGeometry x="565" y="290" width="70" height="20" as="geometry" />
        </mxCell>
        <mxCell id="Sa6GU2M03IdHvF_H993k-7" value="Requirements" style="text;html=1;strokeColor=none;fillColor=none;align=center;verticalAlign=middle;whiteSpace=wrap;rounded=0;" parent="1" vertex="1">
          <mxGeometry x="45" y="135" width="60" height="30" as="geometry" />
        </mxCell>
        <mxCell id="Sa6GU2M03IdHvF_H993k-11" style="edgeStyle=orthogonalEdgeStyle;rounded=0;orthogonalLoop=1;jettySize=auto;html=1;exitX=0.75;exitY=1;exitDx=0;exitDy=0;entryX=0.75;entryY=0;entryDx=0;entryDy=0;strokeColor=none;" parent="1" edge="1">
          <mxGeometry relative="1" as="geometry">
            <mxPoint x="162.5" y="285" as="sourcePoint" />
            <mxPoint x="75" y="280" as="targetPoint" />
          </mxGeometry>
        </mxCell>
        <mxCell id="Sa6GU2M03IdHvF_H993k-14" value="Documentation" style="text;html=1;strokeColor=none;fillColor=none;align=center;verticalAlign=middle;whiteSpace=wrap;rounded=0;" parent="1" vertex="1">
          <mxGeometry x="45" y="320" width="60" height="30" as="geometry" />
        </mxCell>
        <mxCell id="Sa6GU2M03IdHvF_H993k-22" value="" style="rounded=1;whiteSpace=wrap;html=1;strokeWidth=0;strokeColor=none;shadow=0;" parent="1" vertex="1">
          <mxGeometry x="295" y="200" width="100" height="20" as="geometry" />
        </mxCell>
        <mxCell id="Sa6GU2M03IdHvF_H993k-23" style="edgeStyle=orthogonalEdgeStyle;rounded=0;orthogonalLoop=1;jettySize=auto;html=1;exitX=0.5;exitY=1;exitDx=0;exitDy=0;strokeColor=none;shadow=0;" parent="1" source="Sa6GU2M03IdHvF_H993k-3" target="Sa6GU2M03IdHvF_H993k-3" edge="1">
          <mxGeometry relative="1" as="geometry" />
        </mxCell>
        <mxCell id="Sa6GU2M03IdHvF_H993k-24" value="Deployment" style="text;html=1;strokeColor=none;fillColor=none;align=center;verticalAlign=middle;whiteSpace=wrap;rounded=0;" parent="1" vertex="1">
          <mxGeometry x="40" y="260" width="60" height="30" as="geometry" />
        </mxCell>
        <mxCell id="6pn3eqr15ze6-aAfMYU2-1" value="16-SEP" style="text;html=1;strokeColor=none;fillColor=none;align=center;verticalAlign=middle;whiteSpace=wrap;rounded=0;" parent="1" vertex="1">
          <mxGeometry x="510" y="80" width="60" height="30" as="geometry" />
        </mxCell>
      </root>
    </mxGraphModel>
  </diagram>
</mxfile>
